<?xml version="1.0" standalone="no"?>
<!DOCTYPE svg PUBLIC "-//W3C//DTD SVG 20010904//EN"
 "http://www.w3.org/TR/2001/REC-SVG-20010904/DTD/svg10.dtd">
<svg version="1.0" xmlns="http://www.w3.org/2000/svg"
 width="156.000000pt" height="244.000000pt" viewBox="0 0 156.000000 244.000000"
 preserveAspectRatio="xMidYMid meet">

<g transform="translate(0.000000,244.000000) scale(0.100000,-0.100000)"
fill="#000000" stroke="none">
<path d="M1329 2412 c-68 -46 -172 -138 -185 -164 -13 -26 -16 -162 -20 -1011
-3 -635 -9 -997 -16 -1024 -6 -24 -24 -55 -44 -74 -28 -27 -34 -40 -34 -76 0
-40 11 -55 25 -33 3 5 38 36 78 68 l73 59 29 -23 c28 -22 29 -23 11 -43 -15
-17 -16 -23 -6 -36 22 -27 46 -16 158 71 124 96 144 125 150 219 4 55 1 64
-23 93 -23 27 -29 30 -46 19 -16 -10 -19 -23 -19 -85 0 -54 -4 -74 -14 -78
-26 -10 -54 15 -83 73 l-28 58 -3 942 -2 943 40 43 c38 42 39 45 22 61 -23 20
-31 20 -63 -2z"/>
<path d="M820 1570 c-53 -35 -96 -38 -217 -15 -154 30 -231 12 -369 -84 -92
-63 -124 -104 -124 -153 0 -33 31 -68 60 -68 16 0 21 9 26 51 6 46 10 53 40
65 40 17 97 18 219 4 160 -18 157 -17 151 -48 -2 -15 -8 -52 -11 -83 l-6 -56
-221 -7 c-121 -3 -229 -11 -239 -17 -45 -24 2 -87 55 -73 37 9 32 -3 -18 -47
-25 -22 -53 -60 -66 -91 -22 -50 -24 -70 -29 -316 l-6 -264 -27 -22 c-55 -43
-27 -100 36 -76 15 5 29 10 31 10 12 0 172 -171 164 -175 -14 -9 -11 -41 6
-55 24 -20 66 4 204 115 65 52 121 95 125 95 3 0 19 -29 35 -64 22 -49 28 -74
24 -104 -10 -78 50 -56 189 68 46 41 61 62 73 102 16 54 20 138 7 138 -18 0
-55 -35 -67 -63 l-13 -31 -23 45 c-24 44 -24 48 -27 397 l-3 352 54 0 c73 0
107 25 89 64 -11 24 -16 26 -77 26 l-65 0 0 109 c0 125 7 152 56 202 27 28 35
43 32 64 -4 39 -16 40 -68 5z m-227 -712 c4 -133 7 -297 7 -364 0 -121 0 -124
-27 -149 -83 -79 -120 -72 -227 39 -68 71 -80 89 -75 108 4 13 8 129 8 258 2
246 10 302 48 324 23 14 88 22 184 24 l76 2 6 -242z"/>
</g>
</svg>
